<?xml version="1.0" standalone="no"?>
<!DOCTYPE svg PUBLIC "-//W3C//DTD SVG 20010904//EN"
 "http://www.w3.org/TR/2001/REC-SVG-20010904/DTD/svg10.dtd">
<svg version="1.0" xmlns="http://www.w3.org/2000/svg"
 width="1056.000000pt" height="1056.000000pt" viewBox="0 0 1056.000000 1056.000000"
 preserveAspectRatio="xMidYMid meet">
<metadata>
Created by potrace 1.16, written by Peter Selinger 2001-2019
</metadata>
<g transform="translate(0.000000,1056.000000) scale(0.100000,-0.100000)"
fill="#000000" stroke="none">
<path d="M7150 8150 l0 -450 -445 0 -445 0 0 -270 0 -270 445 0 445 0 0 -450
0 -450 275 0 275 0 0 450 0 450 445 0 445 0 0 270 0 270 -445 0 -445 0 0 450
0 450 -275 0 -275 0 0 -450z"/>
<path d="M2860 5280 l0 -2420 2420 0 2420 0 0 1385 0 1385 -275 0 -275 0 0
-1110 0 -1110 -1875 0 -1875 0 0 1875 0 1875 1115 0 1115 0 0 270 0 270 -1385
0 -1385 0 0 -2420z"/>
<path d="M5200 6740 c-244 -17 -453 -81 -609 -184 -103 -69 -210 -187 -259
-288 -66 -134 -77 -187 -76 -383 0 -157 2 -176 27 -250 52 -154 132 -257 274
-351 150 -100 280 -144 808 -272 349 -85 454 -136 519 -252 27 -49 31 -64 31
-135 0 -134 -59 -226 -185 -290 -215 -109 -620 -92 -800 34 -93 65 -161 186
-185 334 l-6 37 -286 0 -286 0 7 -77 c39 -464 343 -757 881 -850 145 -25 515
-25 640 0 359 71 602 236 724 490 66 138 76 187 76 392 -1 168 -3 185 -28 260
-97 292 -329 449 -841 571 -407 97 -487 118 -557 145 -139 54 -221 132 -235
225 -32 217 141 363 451 381 296 17 522 -121 576 -352 6 -27 13 -56 15 -62 3
-10 68 -13 284 -13 l280 0 -6 43 c-36 259 -117 432 -272 579 -215 202 -553
297 -962 268z"/>
</g>
</svg>
